<svg width="114" height="40" viewBox="0 0 114 40" fill="none" xmlns="http://www.w3.org/2000/svg">
<g clip-path="url(#clip0_1403_467)">
<mask id="mask0_1403_467" style="mask-type:luminance" maskUnits="userSpaceOnUse" x="8" y="8" width="99" height="24">
<path d="M106.212 8H8.21216V32H106.212V8Z" fill="white"/>
</mask>
<g mask="url(#mask0_1403_467)">
<path d="M28.0045 31.567H41.1195C41.5361 31.5671 41.9453 31.4601 42.306 31.2569C42.6668 31.0536 42.9663 30.7613 43.1745 30.4093C43.3827 30.0573 43.4922 29.658 43.4921 29.2516C43.4919 28.8452 43.382 28.446 43.1735 28.0941L34.3659 13.2101C34.1577 12.8582 33.8581 12.566 33.4975 12.3628C33.1368 12.1596 32.7277 12.0526 32.3112 12.0526C31.8947 12.0526 31.4856 12.1596 31.1249 12.3628C30.7642 12.566 30.4648 12.8582 30.2566 13.2101L28.0045 17.0184L23.6013 9.57144C23.3929 9.21954 23.0933 8.92733 22.7326 8.72417C22.3718 8.52101 21.9626 8.41406 21.546 8.41406C21.1295 8.41406 20.7203 8.52101 20.3595 8.72417C19.9987 8.92733 19.6991 9.21954 19.4908 9.57144L8.53072 28.0941C8.32221 28.446 8.21234 28.8452 8.21216 29.2516C8.21198 29.658 8.32149 30.0573 8.52968 30.4093C8.73788 30.7613 9.03741 31.0536 9.39815 31.2569C9.75889 31.4601 10.1681 31.5671 10.5847 31.567H18.8172C22.079 31.567 24.4845 30.1691 26.1397 27.442L30.1581 20.6522L32.3105 17.0184L38.7703 27.9333H30.1581L28.0045 31.567ZM18.683 27.9296L12.9378 27.9283L21.5498 13.376L25.847 20.6522L22.9699 25.5154C21.8707 27.2849 20.622 27.9296 18.683 27.9296Z" fill="#00DC82"/>
<path d="M53.2228 31.3491V22.683C53.2228 20.2032 52.9661 17.7233 52.9661 17.7233C52.9661 17.7233 53.9416 19.9851 55.1738 22.1108L60.4365 31.3491H64.5696V12.2729H60.6932V20.9389C60.6932 23.4189 60.9499 25.926 60.9499 25.926C60.9499 25.926 59.9744 23.6368 58.7679 21.5112L53.4795 12.2729H49.3721V31.3491H53.2228Z" fill="black"/>
<path d="M76.7822 17.6143V25.1357C76.7822 26.8798 75.6784 28.1879 74.1124 28.1879C72.6492 28.1879 71.6223 26.9888 71.6223 25.3264V17.6143H68.054V26.1712C68.054 29.3052 69.9536 31.5671 72.8545 31.5671C74.6259 31.5671 76.0634 30.7495 76.7822 29.4415V31.3491H80.3763V17.6143H76.7822Z" fill="black"/>
<path d="M90.8275 24.2092L95.1665 17.6143H91.2384L88.8769 21.2387L86.5147 17.6143H82.6127L86.9516 24.1819L82.2792 31.3491H86.1046L88.9023 27.1251L91.6746 31.3491H95.4744L90.8275 24.2092Z" fill="black"/>
<path d="M99.1778 17.6142H96.6874V20.7754H99.1778V26.362C99.1778 29.5504 101.103 31.349 104.081 31.349H106.212V28.1605H104.569C103.414 28.1605 102.746 27.5338 102.746 26.1985V20.7754H106.212V17.6142H102.746V13.5537H99.1778V17.6142Z" fill="black"/>
</g>
</g>
<defs>
<clipPath id="clip0_1403_467">
<rect width="98" height="24" fill="white" transform="translate(8 8)"/>
</clipPath>
</defs>
</svg>
